<?xml version="1.0" encoding="iso-8859-1"?>
<!-- Generator: Adobe Illustrator 19.0.0, SVG Export Plug-In . SVG Version: 6.00 Build 0)  -->
<svg version="1.1" id="Layer_1" xmlns="http://www.w3.org/2000/svg" xmlns:xlink="http://www.w3.org/1999/xlink" x="0px" y="0px"
	 viewBox="0 0 512 512" style="enable-background:new 0 0 512 512;" xml:space="preserve">
<path style="fill:#B25719;" d="M502.908,288.467c0,72.876-43.925,135.494-106.75,162.814c-21.651,9.415-45.557,14.628-70.678,14.628
	c-16.024,0-31.551-2.129-46.317-6.097l-27.209-90.393l-66.89-222.154c32.45-66.558,83.274-123.079,140.417-123.079
	C423.479,24.186,502.908,190.471,502.908,288.467z"/>
<g>
	<path style="fill:#994811;" d="M396.158,451.282c-21.651,9.415-45.557,14.628-70.678,14.628c-16.024,0-31.551-2.129-46.317-6.097
		l-27.209-90.393c15.333-35.104,28.924-48.654,36.002-13.702C297.082,400.762,343.731,431.109,396.158,451.282z"/>
	<path style="fill:#994811;" d="M261.874,302.669c-23.207-63.094,16.218-239.739,97.854-271.752
		c-11.081-4.351-22.531-6.731-34.247-6.731c-97.998,0-177.427,166.283-177.427,264.281s79.43,177.442,177.427,177.442
		c11.709,0,23.147-1.148,34.221-3.308C278.08,446.654,291.663,383.656,261.874,302.669z"/>
</g>
<path style="fill:#B25719;" d="M345.957,413.716c-62.452,62.452-183.165,96.021-261.862,57.903
	c-12.748-6.166-24.375-14.213-34.495-24.32c-72.559-72.557-38.962-223.785,33.596-296.357l44.81,44.81L345.957,413.716z"/>
<path style="fill:#994811;" d="M84.856,264.77c0,0-55.483,108.81-0.76,206.849c-12.748-6.166-24.375-14.213-34.495-24.32
	c-72.559-72.557-38.962-223.785,33.596-296.357l44.81,44.81L84.856,264.77z"/>
<ellipse transform="matrix(-0.7071 -0.7071 0.7071 -0.7071 166.6685 633.6945)" style="fill:#A3E261;" cx="214.577" cy="282.329" rx="185.799" ry="95.749"/>
<path style="fill:#FFFFFF;" d="M287.957,355.71c-19.288-4.927-53.137-20.466-89.715-57.043
	c-36.578-36.578-52.118-70.429-57.045-89.715c19.287,4.928,53.137,20.468,89.715,57.046S283.029,336.423,287.957,355.71z"/>
<path d="M468.221,131.778c-2.348-4.441-7.851-6.136-12.288-3.79c-4.44,2.347-6.137,7.849-3.79,12.288
	c25.705,48.629,41.672,105.411,41.672,148.192c0,92.828-75.516,168.349-168.336,168.349c-6.477,0-12.935-0.392-19.344-1.125
	c17.347-10.363,33.044-22.339,46.253-35.548c20.612-20.612,24.741-54.548,11.625-95.556c-12.46-38.958-39.203-80.293-75.302-116.393
	s-77.436-62.842-116.393-75.302c-41.007-13.115-74.943-8.988-95.556,11.625c-37.407,37.407-64.988,94.701-73.776,153.257
	c-9.742,64.91,4.532,120.298,40.19,155.956c28.345,28.345,69.147,43.178,117.299,43.176c12.423,0,25.344-0.988,38.656-2.986
	c27.971-4.198,55.648-12.693,81.012-24.489c14.787,3.681,30.016,5.569,45.336,5.569C428.327,475.001,512,391.323,512,288.467
	C512,242.906,495.225,182.866,468.221,131.778z M196.434,475.937c-59.058,8.863-108.922-3.588-140.399-35.065
	C24.56,409.396,12.107,359.535,20.97,300.473c5.445-36.273,18.518-71.95,36.799-102.011c0.364,20.869,6.651,44.852,18.898,70.255
	c2.181,4.523,7.616,6.42,12.139,4.242c4.523-2.181,6.422-7.616,4.242-12.139C71.279,215.671,69.999,177,89.622,157.377
	c15.557-15.558,42.961-18.101,77.158-7.162c36.248,11.593,74.986,36.752,109.074,70.841c34.088,34.088,59.246,72.825,70.841,109.074
	c10.938,34.198,8.394,61.601-7.164,77.158c-15.558,15.558-42.959,18.101-77.158,7.164c-36.248-11.593-74.986-36.753-109.074-70.841
	c-17.277-17.278-32.282-35.763-44.598-54.945c-2.713-4.226-8.338-5.452-12.563-2.739s-5.452,8.337-2.739,12.563
	c13.018,20.275,28.845,39.781,47.042,57.978c36.099,36.099,77.435,62.842,116.393,75.302c14.846,4.749,28.749,7.208,41.444,7.473
	c-7.062,4.287-14.431,8.285-22.047,11.966c-0.647,0.221-1.262,0.521-1.842,0.879C250.115,463.597,223.441,471.884,196.434,475.937z"
	/>
<path d="M197.707,123.257c1.486,0.914,3.131,1.349,4.756,1.349c3.054,0,6.036-1.538,7.753-4.329
	c19.991-32.491,61.551-86.999,115.265-86.999c36.602,0,74.871,26.768,107.756,75.372c2.815,4.161,8.469,5.249,12.626,2.436
	c4.159-2.814,5.249-8.467,2.436-12.626c-36.373-53.759-79.991-83.367-122.818-83.367c-46.364,0-92.798,33.97-130.753,95.653
	C192.096,115.025,193.431,120.625,197.707,123.257z"/>
<path d="M284.479,347.313c-3.432,1.449-5.704,4.881-5.608,8.621c0.095,3.648,2.416,6.931,5.815,8.25
	c7.907,3.07,15.395-5.894,11.062-13.148C293.482,347.242,288.569,345.582,284.479,347.313z"/>
<path d="M223.887,309.792c-3.867-3.213-9.602-2.679-12.802,1.188c-3.213,3.867-2.679,9.589,1.188,12.802
	c1.697,1.406,3.758,2.097,5.807,2.097c2.606,0,5.201-1.127,6.995-3.285C228.287,318.727,227.754,312.993,223.887,309.792z"/>
<path d="M244.629,325.249c-4.183-2.776-9.832-1.637-12.596,2.558c-2.776,4.183-1.637,9.832,2.558,12.596
	c1.54,1.03,3.285,1.515,5.007,1.515c2.946,0,5.843-1.431,7.589-4.073C249.963,333.663,248.813,328.013,244.629,325.249z"/>
<path d="M171.685,252.304c-2.776-4.183-8.414-5.334-12.608-2.558c-4.183,2.776-5.334,8.414-2.558,12.608c0-0.012,0-0.012,0-0.012
	c1.758,2.643,4.643,4.073,7.589,4.073c1.721,0,3.467-0.485,5.019-1.503C173.308,262.136,174.447,256.486,171.685,252.304z"/>
<path d="M191.82,292.25c-3.552,3.552-3.552,9.311,0,12.863c1.782,1.77,4.11,2.655,6.437,2.655c2.316,0,4.643-0.885,6.425-2.655
	c3.552-3.552,3.552-9.311,0-12.863C201.132,288.698,195.373,288.698,191.82,292.25z"/>
<path d="M266.863,338.027h-0.012c-4.51-2.206-9.953-0.315-12.147,4.195c-2.194,4.522-0.315,9.965,4.207,12.16
	c1.273,0.618,2.631,0.909,3.964,0.909c3.37,0,6.607-1.879,8.183-5.116C273.252,345.665,271.374,340.221,266.863,338.027z"/>
<path d="M142.551,238.035c1.564,3.237,4.801,5.116,8.171,5.116c1.346,0,2.691-0.291,3.976-0.921
	c4.51-2.194,6.401-7.638,4.195-12.147c-2.194-4.522-7.638-6.401-12.147-4.207C142.224,228.082,140.345,233.513,142.551,238.035z"/>
<path d="M173.15,284.661c1.794,2.17,4.389,3.285,6.995,3.285c2.049,0,4.11-0.691,5.807-2.097c3.855-3.201,4.389-8.935,1.188-12.802
	c-3.213-3.867-8.947-4.401-12.802-1.188C170.472,275.059,169.939,280.793,173.15,284.661z"/>
<path d="M132.804,212.431c2.992,7.476,14.022,7.222,16.869-0.207c2.954-7.709-5.491-15.178-12.758-11.292
	C132.862,203.098,131.01,208.176,132.804,212.431z"/>
<path d="M184.522,239.417c1.54,1.018,3.285,1.515,5.007,1.515c2.958,0,5.843-1.431,7.589-4.073
	c2.776-4.195,1.637-9.832-2.558-12.608c-4.183-2.764-9.832-1.624-12.596,2.57C179.188,231.003,180.341,236.641,184.522,239.417z"/>
<path d="M162.3,226.639c1.273,0.618,2.631,0.921,3.964,0.921c3.37,0,6.607-1.891,8.183-5.128c2.194-4.51,0.315-9.953-4.195-12.147
	c-4.522-2.194-9.965-0.315-12.16,4.195C155.9,219.001,157.778,224.445,162.3,226.639z"/>
<path d="M230.893,275.071c2.328,0,4.655-0.885,6.437-2.655c3.552-3.552,3.552-9.311,0-12.863c-3.552-3.552-9.311-3.552-12.863,0
	c-3.552,3.552-3.552,9.311,0,12.863C226.25,274.186,228.578,275.071,230.893,275.071z"/>
<path d="M270.258,334.584c1.576,3.237,4.813,5.116,8.183,5.116c1.334,0,2.679-0.303,3.964-0.921
	c4.522-2.194,6.401-7.638,4.195-12.147c0.012,0,0.012,0,0.012,0c-2.206-4.522-7.638-6.401-12.16-4.207
	C269.942,324.619,268.051,330.063,270.258,334.584z"/>
<path d="M257.467,312.362c1.758,2.631,4.643,4.061,7.589,4.061c1.721,0,3.467-0.485,5.019-1.515
	c4.183-2.764,5.334-8.414,2.558-12.596s-8.414-5.334-12.608-2.558C255.843,302.53,254.691,308.168,257.467,312.362z"/>
<path d="M242.01,291.619c1.794,2.158,4.389,3.285,6.995,3.285c2.049,0,4.11-0.691,5.807-2.097c3.867-3.213,4.401-8.947,1.188-12.814
	c0,0.012,0,0.012,0,0.012c-3.201-3.867-8.935-4.401-12.802-1.2C239.331,282.018,238.811,287.752,242.01,291.619z"/>
<path d="M205.265,254.874c1.697,1.406,3.758,2.097,5.807,2.097c2.606,0,5.201-1.127,6.995-3.285
	c3.213-3.867,2.679-9.602-1.188-12.802c-3.867-3.213-9.602-2.679-12.802,1.188C200.864,245.939,201.397,251.661,205.265,254.874z"/>
<g>
</g>
<g>
</g>
<g>
</g>
<g>
</g>
<g>
</g>
<g>
</g>
<g>
</g>
<g>
</g>
<g>
</g>
<g>
</g>
<g>
</g>
<g>
</g>
<g>
</g>
<g>
</g>
<g>
</g>
</svg>
