<svg height="512" viewBox="0 0 512 512" width="512" xmlns="http://www.w3.org/2000/svg"><g id="FilledOutline"><path d="m432 288c0 101.02-74.89 184.55-172.19 198.08a202.365 202.365 0 0 1 -55.62 0c-97.3-13.53-172.19-97.06-172.19-198.08s74.89-184.55 172.19-198.08a202.365 202.365 0 0 1 55.62 0c97.3 13.53 172.19 97.06 172.19 198.08z" fill="#117f40"/><path d="m480 328a160 160 0 0 1 -320 0z" fill="#85bb40"/><path d="m448 328a128 128 0 0 1 -256 0z" fill="#eb5849"/><path d="m93.73 421.212a191.058 191.058 0 0 1 -53.73-133.212c0-77.079 45.662-143.683 111.35-174.215-4.441 5.194-7.279 11.449-10.037 17.543-2.173 4.8-4.226 9.341-6.923 13.09-2.414 3.356-6.007 6.578-9.811 9.99-5.984 5.368-12.768 11.453-16.643 19.816-3.489 7.527-3.808 15.658-4.118 23.521-.217 5.552-.423 10.8-1.718 15.393-1.175 4.171-3.672 8.565-6.316 13.218-3.784 6.668-8.084 14.226-9.236 22.882-1.079 8.1.879 15.86 2.772 23.364 1.38 5.46 2.68 10.618 2.68 15.398s-1.3 9.938-2.679 15.4c-1.893 7.5-3.851 15.266-2.772 23.366 1.151 8.654 5.451 16.213 9.236 22.881 2.644 4.653 5.141 9.047 6.316 13.218 1.3 4.6 1.5 9.84 1.718 15.392.31 7.863.629 15.994 4.118 23.521 3.875 8.363 10.658 14.448 16.643 19.816 3.8 3.411 7.4 6.634 9.81 9.989a69.08 69.08 0 0 1 6.31 11.727l14.567-6.62a83.542 83.542 0 0 0 -7.885-14.451c-3.427-4.763-7.844-8.725-12.114-12.556-5.307-4.76-10.319-9.255-12.81-14.631-2.143-4.626-2.388-10.842-2.646-17.424-.246-6.236-.5-12.685-2.307-19.1-1.7-6.044-4.805-11.5-7.805-16.784-3.366-5.925-6.546-11.52-7.288-17.092-.673-5.052.833-11.02 2.427-17.338 1.552-6.168 3.161-12.546 3.161-19.314s-1.609-13.146-3.166-19.313c-1.594-6.318-3.1-12.285-2.427-17.336.742-5.571 3.922-11.166 7.288-17.09 3-5.281 6.1-10.74 7.805-16.785 1.808-6.416 2.062-12.866 2.307-19.1.258-6.582.5-12.8 2.646-17.424 2.491-5.376 7.5-9.872 12.81-14.632 4.271-3.831 8.688-7.793 12.115-12.556 3.628-5.044 6.111-10.531 8.513-15.837 2.862-6.325 5.566-12.3 9.575-15.717 4.9-4.177 12.061-5.879 19.641-7.682a98.274 98.274 0 0 0 14.4-4.212c.1-.042.2-.094.309-.137-3.938 5.377-8.593 11.982-11.523 20.538-1.991 5.814-2.658 12.207-3.3 18.389a118.794 118.794 0 0 1 -1.928 13.491 93.85 93.85 0 0 1 -3.657 11.386c-2.06 5.623-4.4 12-5.434 18.971-.9 6.015-.627 12.109-.368 18a103.844 103.844 0 0 1 0 14 94.992 94.992 0 0 1 -2.439 12.763c-1.391 5.872-2.829 11.944-3.119 18.525-.271 6.129.581 12.112 1.4 17.9a99.608 99.608 0 0 1 1.343 13.858 99.859 99.859 0 0 1 -1.34 13.884l-.141.994 15.841 2.244.14-.983a113.447 113.447 0 0 0 1.5-16.139 113.32 113.32 0 0 0 -1.5-16.109c-.753-5.3-1.464-10.3-1.26-14.941.224-5.07 1.429-10.157 2.7-15.543a108.152 108.152 0 0 0 2.8-14.981 117.37 117.37 0 0 0 .048-16.177c-.236-5.373-.46-10.448.209-14.939.8-5.362 2.66-10.444 4.631-15.825a107.028 107.028 0 0 0 4.25-13.4 131.344 131.344 0 0 0 2.226-15.322c.576-5.537 1.121-10.768 2.525-14.865 2.323-6.782 6.241-12.116 10.03-17.273 1.69-2.3 3.287-4.476 4.738-6.758 3.538-5.545 10.103-15.867 13.812-15.867s10.274 10.322 13.8 15.867c1.451 2.282 3.048 4.456 4.738 6.758 3.789 5.157 7.707 10.491 10.03 17.273 1.4 4.1 1.949 9.328 2.525 14.865a131.344 131.344 0 0 0 2.226 15.322 107.028 107.028 0 0 0 4.25 13.4c1.971 5.381 3.833 10.463 4.631 15.825.669 4.491.445 9.566.209 14.939a117.37 117.37 0 0 0 .048 16.177 108.152 108.152 0 0 0 2.8 14.981c1.275 5.386 2.48 10.473 2.7 15.543.2 4.643-.507 9.645-1.26 14.941a113.32 113.32 0 0 0 -1.5 16.109 113.447 113.447 0 0 0 1.5 16.139l.14.983 15.841-2.244-.141-.994a99.859 99.859 0 0 1 -1.328-13.884 99.608 99.608 0 0 1 1.337-13.856c.822-5.787 1.674-11.77 1.4-17.9-.29-6.581-1.728-12.653-3.119-18.525a94.992 94.992 0 0 1 -2.439-12.763 103.844 103.844 0 0 1 0-14c.259-5.893.528-11.987-.368-18-1.039-6.975-3.374-13.348-5.434-18.971a93.85 93.85 0 0 1 -3.657-11.386 118.794 118.794 0 0 1 -1.928-13.491c-.644-6.182-1.311-12.575-3.3-18.389-2.93-8.556-7.585-15.161-11.523-20.538.1.043.2.095.309.137a98.151 98.151 0 0 0 14.4 4.212c7.58 1.8 14.739 3.505 19.641 7.682 4.009 3.417 6.713 9.392 9.575 15.717 2.4 5.306 4.885 10.793 8.513 15.837 3.427 4.763 7.844 8.725 12.115 12.556 5.307 4.76 10.319 9.256 12.81 14.632 2.143 4.626 2.388 10.842 2.646 17.424.245 6.236.5 12.686 2.307 19.1 1.7 6.045 4.805 11.5 7.805 16.785 3.366 5.924 6.546 11.519 7.288 17.089.673 5.052-.833 11.02-2.427 17.337-1.551 6.165-3.16 12.543-3.16 19.311 0 6.188 1.335 12.02 2.821 17.946l15.52-3.892c-1.234-4.917-2.341-9.692-2.341-14.054 0-4.78 1.3-9.938 2.68-15.4 1.893-7.5 3.851-15.264 2.772-23.365-1.152-8.655-5.447-16.213-9.236-22.881-2.644-4.653-5.141-9.047-6.316-13.218-1.295-4.6-1.5-9.841-1.718-15.393-.31-7.863-.629-15.994-4.118-23.521-3.875-8.363-10.659-14.448-16.643-19.816-3.8-3.412-7.4-6.635-9.811-9.99-2.7-3.749-4.75-8.286-6.923-13.09-2.758-6.094-5.6-12.349-10.037-17.543 65.688 30.534 111.35 97.138 111.35 174.217 0 5.12-.2 10.291-.605 15.368l15.949 1.264c.435-5.5.656-11.092.656-16.632 0-112.011-89-203.611-200-207.831v-16.169h16v-16h-16v-8a24 24 0 1 0 -24 24h8v16.169c-111 4.22-200 95.82-200 207.831a208.007 208.007 0 0 0 199.686 207.837l.628-15.988a190.988 190.988 0 0 1 -130.584-58.637zm122.27-373.212a8 8 0 1 1 8-8v8z"/><path d="m480 320h-320a8 8 0 0 0 -8 8c0 92.636 75.364 168 168 168s168-75.364 168-168a8 8 0 0 0 -8-8zm-40.273 16a119.994 119.994 0 0 1 -239.454 0zm-119.727 144c-81.127 0-147.614-63.895-151.792-144h16.034c4.158 71.28 63.458 128 135.758 128s131.6-56.72 135.758-128h16.034c-4.178 80.105-70.665 144-151.792 144z"/><path d="m240 360h16v16h-16z"/><path d="m344 400h16v16h-16z"/><path d="m272 400h16v16h-16z"/><path d="m392 360h16v16h-16z"/><path d="m312 360h16v16h-16z"/></g></svg>